<?xml version="1.0" encoding="utf-8"?>
<!-- Generator: Adobe Illustrator 21.1.0, SVG Export Plug-In . SVG Version: 6.00 Build 0)  -->
<svg version="1.1" xmlns="http://www.w3.org/2000/svg" xmlns:xlink="http://www.w3.org/1999/xlink" x="0px" y="0px"
	 viewBox="0 0 27 27" style="enable-background:new 0 0 27 27;" xml:space="preserve">
<style type="text/css">
	.st0{display:none;}
	.st1{display:inline;}
	.st2{fill:#E6E6E6;}
	.st3{display:inline;fill:#FFFFFF;}
	.st4{fill:#FFFFFF;}
	.st5{fill:#2F75BB;}
	.st6{opacity:0.25;fill:#FFFFFF;}
	.st7{opacity:0.95;}
	.st8{fill:#737373;}
	.st9{opacity:0.1;}
	.st10{clip-path:url(#SVGID_2_);}
	.st11{clip-path:url(#SVGID_4_);}
	.st12{clip-path:url(#SVGID_6_);}
	.st13{fill:#DCDCDC;}
	.st14{fill:#F0F0F0;}
	.st15{clip-path:url(#SVGID_8_);}
	.st16{opacity:0.33;fill:#2F75BB;}
	.st17{opacity:0.5;fill:#2F75BB;}
	.st18{opacity:0.25;}
	.st19{clip-path:url(#SVGID_10_);}
	.st20{opacity:0.2;}
	.st21{clip-path:url(#SVGID_12_);}
	.st22{opacity:0.2;fill:#FFFFFF;}
	.st23{clip-path:url(#SVGID_14_);}
	.st24{clip-path:url(#SVGID_16_);}
	.st25{clip-path:url(#SVGID_18_);}
	.st26{opacity:2.000000e-02;}
	.st27{clip-path:url(#SVGID_20_);}
	.st28{clip-path:url(#SVGID_22_);}
	.st29{fill:none;stroke:#2F75BB;stroke-miterlimit:10;}
	.st30{fill:none;stroke:#FFFFFF;stroke-miterlimit:10;}
	.st31{clip-path:url(#SVGID_24_);}
	.st32{clip-path:url(#SVGID_26_);}
	.st33{clip-path:url(#SVGID_28_);}
	.st34{clip-path:url(#SVGID_30_);}
	.st35{clip-path:url(#SVGID_32_);}
	.st36{clip-path:url(#SVGID_34_);}
	.st37{clip-path:url(#SVGID_36_);}
	.st38{opacity:3.000000e-02;}
	.st39{clip-path:url(#SVGID_38_);}
	.st40{clip-path:url(#SVGID_40_);}
	.st41{clip-path:url(#SVGID_42_);}
	.st42{clip-path:url(#SVGID_44_);}
	.st43{clip-path:url(#SVGID_46_);}
	.st44{clip-path:url(#SVGID_48_);}
	.st45{clip-path:url(#SVGID_50_);}
	.st46{clip-path:url(#SVGID_52_);}
	.st47{opacity:0.15;}
	.st48{opacity:0.15;fill:#FFFFFF;}
	.st49{clip-path:url(#SVGID_54_);}
	.st50{clip-path:url(#SVGID_56_);}
	.st51{clip-path:url(#SVGID_58_);}
	.st52{fill:#F5F5F5;}
	.st53{opacity:6.000000e-02;}
	.st54{clip-path:url(#SVGID_60_);}
	.st55{fill:#286699;}
	.st56{fill:#2F75BB;stroke:#FFFFFF;stroke-miterlimit:10;}
	.st57{fill:#C8C8C8;}
	.st58{fill:none;}
	.st59{clip-path:url(#SVGID_62_);}
</style>
<g id="Layer_1" class="st0">
</g>
<g id="Layer_2">
	<g>
		<path class="st4" d="M13.5,22.5c-2.2,0-4-1.8-4-4V7.6c0-1.7,1.4-3.1,3.1-3.1s3.1,1.4,3.1,3.1v8.1c0,1.2-1,2.2-2.2,2.2
			c-1.2,0-2.2-1-2.2-2.2V9.6c0-0.2,0.2-0.5,0.5-0.5c0.2,0,0.5,0.2,0.5,0.5v6.1c0,0.7,0.6,1.3,1.3,1.3c0.7,0,1.3-0.6,1.3-1.3V7.6
			c0-1.2-1-2.2-2.2-2.2s-2.2,1-2.2,2.2v10.8c0,1.7,1.4,3.1,3.1,3.1c1.7,0,3.1-1.4,3.1-3.1V7.4c0-0.2,0.2-0.5,0.5-0.5
			c0.2,0,0.5,0.2,0.5,0.5v11.1C17.5,20.7,15.7,22.5,13.5,22.5z"/>
	</g>
</g>
<g id="Layer_3" class="st0">
</g>
</svg>
